<mxfile host="app.diagrams.net" modified="2023-05-11T07:37:20.893Z" agent="Mozilla/5.0 (Macintosh; Intel Mac OS X 10.15; rv:102.0) Gecko/20100101 Firefox/102.0" etag="Y_ljbhyB3S70AFXmoce0" version="21.1.7" type="device">
  <diagram name="ページ1" id="kqSZLvo-jn-pk72BMCcL">
    <mxGraphModel dx="1068" dy="585" grid="1" gridSize="10" guides="1" tooltips="1" connect="1" arrows="1" fold="1" page="1" pageScale="1" pageWidth="850" pageHeight="1100" math="0" shadow="0">
      <root>
        <mxCell id="0" />
        <mxCell id="1" parent="0" />
        <mxCell id="I78eC4Muo0iXp6u0OlwH-2" value="" style="rounded=0;whiteSpace=wrap;html=1;" vertex="1" parent="1">
          <mxGeometry x="90" y="120" width="570" height="380" as="geometry" />
        </mxCell>
        <mxCell id="I78eC4Muo0iXp6u0OlwH-18" value="AWS Cloud" style="sketch=0;outlineConnect=0;gradientColor=none;html=1;whiteSpace=wrap;fontSize=12;fontStyle=0;shape=mxgraph.aws4.group;grIcon=mxgraph.aws4.group_aws_cloud;strokeColor=#858B94;fillColor=none;verticalAlign=top;align=left;spacingLeft=30;fontColor=#858B94;dashed=0;" vertex="1" parent="1">
          <mxGeometry x="120" y="140" width="510" height="340" as="geometry" />
        </mxCell>
        <mxCell id="I78eC4Muo0iXp6u0OlwH-11" style="edgeStyle=orthogonalEdgeStyle;rounded=0;orthogonalLoop=1;jettySize=auto;html=1;" edge="1" parent="1" source="I78eC4Muo0iXp6u0OlwH-4" target="I78eC4Muo0iXp6u0OlwH-6">
          <mxGeometry relative="1" as="geometry">
            <Array as="points">
              <mxPoint x="385" y="310" />
              <mxPoint x="316" y="310" />
            </Array>
          </mxGeometry>
        </mxCell>
        <mxCell id="I78eC4Muo0iXp6u0OlwH-12" style="edgeStyle=orthogonalEdgeStyle;rounded=0;orthogonalLoop=1;jettySize=auto;html=1;" edge="1" parent="1" source="I78eC4Muo0iXp6u0OlwH-4" target="I78eC4Muo0iXp6u0OlwH-7">
          <mxGeometry relative="1" as="geometry">
            <Array as="points">
              <mxPoint x="385" y="310" />
              <mxPoint x="449" y="310" />
            </Array>
          </mxGeometry>
        </mxCell>
        <mxCell id="I78eC4Muo0iXp6u0OlwH-4" value="" style="sketch=0;outlineConnect=0;fontColor=#232F3E;gradientColor=none;fillColor=#4D27AA;strokeColor=none;dashed=0;verticalLabelPosition=bottom;verticalAlign=top;align=center;html=1;fontSize=12;fontStyle=0;aspect=fixed;pointerEvents=1;shape=mxgraph.aws4.application_load_balancer;" vertex="1" parent="1">
          <mxGeometry x="360" y="190" width="50" height="50" as="geometry" />
        </mxCell>
        <mxCell id="I78eC4Muo0iXp6u0OlwH-5" value="" style="sketch=0;points=[[0,0,0],[0.25,0,0],[0.5,0,0],[0.75,0,0],[1,0,0],[0,1,0],[0.25,1,0],[0.5,1,0],[0.75,1,0],[1,1,0],[0,0.25,0],[0,0.5,0],[0,0.75,0],[1,0.25,0],[1,0.5,0],[1,0.75,0]];outlineConnect=0;fontColor=#232F3E;gradientColor=#F78E04;gradientDirection=north;fillColor=#D05C17;strokeColor=#ffffff;dashed=0;verticalLabelPosition=bottom;verticalAlign=top;align=center;html=1;fontSize=12;fontStyle=0;aspect=fixed;shape=mxgraph.aws4.resourceIcon;resIcon=mxgraph.aws4.ecs;" vertex="1" parent="1">
          <mxGeometry x="240" y="260" width="30" height="30" as="geometry" />
        </mxCell>
        <mxCell id="I78eC4Muo0iXp6u0OlwH-6" value="" style="sketch=0;outlineConnect=0;fontColor=#232F3E;gradientColor=none;fillColor=#D45B07;strokeColor=none;dashed=0;verticalLabelPosition=bottom;verticalAlign=top;align=center;html=1;fontSize=12;fontStyle=0;aspect=fixed;pointerEvents=1;shape=mxgraph.aws4.container_1;" vertex="1" parent="1">
          <mxGeometry x="292" y="370" width="48" height="31" as="geometry" />
        </mxCell>
        <mxCell id="I78eC4Muo0iXp6u0OlwH-7" value="" style="sketch=0;outlineConnect=0;fontColor=#232F3E;gradientColor=none;fillColor=#D45B07;strokeColor=none;dashed=0;verticalLabelPosition=bottom;verticalAlign=top;align=center;html=1;fontSize=12;fontStyle=0;aspect=fixed;pointerEvents=1;shape=mxgraph.aws4.container_1;" vertex="1" parent="1">
          <mxGeometry x="425" y="370" width="48" height="31" as="geometry" />
        </mxCell>
        <mxCell id="I78eC4Muo0iXp6u0OlwH-13" value="/x86" style="text;html=1;strokeColor=none;fillColor=none;align=center;verticalAlign=middle;whiteSpace=wrap;rounded=0;" vertex="1" parent="1">
          <mxGeometry x="310" y="320" width="60" height="30" as="geometry" />
        </mxCell>
        <mxCell id="I78eC4Muo0iXp6u0OlwH-14" value="/arm64" style="text;html=1;strokeColor=none;fillColor=none;align=center;verticalAlign=middle;whiteSpace=wrap;rounded=0;" vertex="1" parent="1">
          <mxGeometry x="450" y="320" width="60" height="30" as="geometry" />
        </mxCell>
        <mxCell id="I78eC4Muo0iXp6u0OlwH-15" value="container&lt;br&gt; on Intel" style="text;html=1;strokeColor=none;fillColor=none;align=center;verticalAlign=middle;whiteSpace=wrap;rounded=0;" vertex="1" parent="1">
          <mxGeometry x="279" y="401" width="74" height="30" as="geometry" />
        </mxCell>
        <mxCell id="I78eC4Muo0iXp6u0OlwH-16" value="container&lt;br&gt; on Graviton" style="text;html=1;strokeColor=none;fillColor=none;align=center;verticalAlign=middle;whiteSpace=wrap;rounded=0;" vertex="1" parent="1">
          <mxGeometry x="412" y="401" width="98" height="30" as="geometry" />
        </mxCell>
        <mxCell id="I78eC4Muo0iXp6u0OlwH-17" value="VPC" style="points=[[0,0],[0.25,0],[0.5,0],[0.75,0],[1,0],[1,0.25],[1,0.5],[1,0.75],[1,1],[0.75,1],[0.5,1],[0.25,1],[0,1],[0,0.75],[0,0.5],[0,0.25]];outlineConnect=0;gradientColor=none;html=1;whiteSpace=wrap;fontSize=12;fontStyle=0;container=1;pointerEvents=0;collapsible=0;recursiveResize=0;shape=mxgraph.aws4.group;grIcon=mxgraph.aws4.group_vpc;strokeColor=#248814;fillColor=none;verticalAlign=top;align=left;spacingLeft=30;fontColor=#AAB7B8;dashed=0;" vertex="1" parent="1">
          <mxGeometry x="180" y="180" width="390" height="270" as="geometry" />
        </mxCell>
        <mxCell id="I78eC4Muo0iXp6u0OlwH-19" value="" style="rounded=0;whiteSpace=wrap;html=1;fillColor=none;strokeWidth=1;" vertex="1" parent="I78eC4Muo0iXp6u0OlwH-17">
          <mxGeometry x="60" y="80" width="290" height="180" as="geometry" />
        </mxCell>
        <mxCell id="I78eC4Muo0iXp6u0OlwH-20" value="Application Load Balancer" style="text;html=1;strokeColor=none;fillColor=none;align=center;verticalAlign=middle;whiteSpace=wrap;rounded=0;" vertex="1" parent="I78eC4Muo0iXp6u0OlwH-17">
          <mxGeometry x="220" y="40" width="160" height="30" as="geometry" />
        </mxCell>
        <mxCell id="I78eC4Muo0iXp6u0OlwH-21" value="ECS Cluster" style="text;html=1;strokeColor=none;fillColor=none;align=center;verticalAlign=middle;whiteSpace=wrap;rounded=0;" vertex="1" parent="I78eC4Muo0iXp6u0OlwH-17">
          <mxGeometry x="10" y="60" width="160" height="30" as="geometry" />
        </mxCell>
      </root>
    </mxGraphModel>
  </diagram>
</mxfile>
